<svg xmlns="http://www.w3.org/2000/svg" width="8.9993" height="6" version="1.1">
    <g transform="translate(-18 -43.362)">
        <g transform="matrix(.74646 0 0 .8075 16.537 40.152)" fill="#5c616c">
            <g transform="translate(-181 -747)" fill="#5c616c">
                <path transform="matrix(1.3396 0 0 1.2384 149.47 391.84)" d="m25.777 290a0.74654 0.80758 0 0 0-0.16406 0.0195 0.74654 0.80758 0 0 0-0.0918 0.0254c-0.03755-0.0137-0.07527-0.0254-0.11719-0.0254-0.20677 0-0.375 0.18062-0.375 0.4043 0 0.0377 0.01066 0.0709 0.01953 0.10547a0.74654 0.80758 0 0 0 0.19141 0.8789l3.7324 4.0371 0.53711 0.55469 0.53516-0.55469 3.7324-4.0371a0.75876 0.8208 0 0 0 0.18359-0.83984c0.01625-0.0454 0.02734-0.0928 0.02734-0.14453 0-0.22368-0.16628-0.4043-0.37305-0.4043-0.04825 0-0.09446 0.0114-0.13672 0.0293a0.75876 0.8208 0 0 0-0.77344 0.19726l-3.1953 3.457-3.1973-3.457a0.74654 0.80758 0 0 0-0.53515-0.24606z" color="#000000" fill="#8c919d" style="text-decoration-line:none;text-indent:0;text-transform:none"/>
            </g>
        </g>
    </g>
</svg>
