<svg xmlns="http://www.w3.org/2000/svg" width="9" height="6" version="1.1">
    <g transform="translate(-43 -43.362)">
        <g transform="translate(43 43.362)">
            <rect width="9" height="6" fill="none"/>
            <g transform="matrix(.58058 0 0 .67292 -.13764 -1.6755)" fill="#5c616c">
                <g transform="translate(-181 -747)" fill="#5c616c">
                    <path transform="matrix(1.7224 0 0 1.4861 95.117 318.53)" d="m51.605 291a0.58064 0.67299 0 0 0-0.12891 0.0156 0.58064 0.67299 0 0 0-0.07227 0.0215c-0.02864-0.0109-0.05797-0.0215-0.08984-0.0215-0.16082 0-0.29102 0.1515-0.29102 0.3379 0 0.0245 0.01721 0.0395 0.02148 0.0625a0.58064 0.67299 0 0 0 0.14258 0.75586l2.9023 3.3652 0.41797 0.46289 0.41602-0.46289 2.9023-3.3652a0.59014 0.684 0 0 0 0.13281-0.73047c0.0083-0.0314 0.03125-0.0532 0.03125-0.0879 0-0.1864-0.12824-0.3379-0.28906-0.3379-0.03743 0-0.07267 0.0106-0.10547 0.0254a0.59014 0.684 0 0 0-0.60352 0.16406l-2.4844 2.8809-2.4863-2.8809a0.58064 0.67299 0 0 0-0.41601-0.20505z" color="#000000" fill="#5c616c" opacity=".55" style="text-decoration-line:none;text-indent:0;text-transform:none"/>
                </g>
            </g>
        </g>
    </g>
</svg>
