<svg xmlns="http://www.w3.org/2000/svg" width="8.9993" height="5.9999" version="1.1">
    <g transform="translate(-7.0005 -73.362)">
        <g transform="matrix(.74646 0 0 -.8075 5.5373 82.573)" fill="#5c616c">
            <g transform="translate(-181 -747)" fill="#5c616c">
                <path transform="matrix(1.3396 0 0 -1.2384 164.2 1154.7)" d="m18.51 320-0.53711 0.55469-3.7324 4.0371a0.74654 0.80758 0 0 0-0.19141 0.8789c-0.0089 0.0346-0.01953 0.0677-0.01953 0.10547 0 0.22368 0.16823 0.4043 0.375 0.4043 0.04192 0 0.07963-0.0117 0.11719-0.0254a0.74654 0.80758 0 0 0 0.0918 0.0254 0.74654 0.80758 0 0 0 0.69922-0.22656l3.1973-3.457 3.1953 3.457a0.75876 0.8208 0 0 0 0.77344 0.19726c0.04226 0.0179 0.08846 0.0293 0.13672 0.0293 0.20677 0 0.37305-0.18062 0.37305-0.4043 0-0.0517-0.01109-0.0991-0.02734-0.14453a0.75876 0.8208 0 0 0-0.1836-0.83984l-3.7324-4.0371z" color="#000000" fill="#5c616c" opacity=".55" style="text-decoration-line:none;text-indent:0;text-transform:none"/>
            </g>
        </g>
    </g>
</svg>
