<svg xmlns="http://www.w3.org/2000/svg" width="16" height="16" version="1.1">
    <g transform="translate(-298 281.64)">
        <g transform="translate(281 -282)" opacity=".55">
            <path d="m20 1.375c-1.108 0-2 0.892-2 2v10c0 1.108 0.892 2 2 2h10c1.108 0 2-0.892 2-2v-10c0-1.108-0.892-2-2-2zm0 1h10c0.554 0 1 0.446 1 1v10c0 0.554-0.446 1-1 1h-10c-0.554 0-1-0.446-1-1v-10c0-0.554 0.446-1 1-1z" fill="#cfd6e6" opacity="1" stroke-width="0"/>
            <g transform="translate(0,-30)">
                <g transform="matrix(.92952 0 0 .92914 -156.75 -212.96)">
                    <g transform="matrix(.50892 0 0 .5174 161.79 197.56)"/>
                </g>
                <rect x="17" y="30.362" width="16" height="16" color="#000000" fill="none"/>
                <rect x="19" y="32.362" width="12" height="12" rx="1" ry="1" color="#000000" fill="#fff" stroke-width="0"/>
            </g>
        </g>
    </g>
</svg>
