<svg xmlns="http://www.w3.org/2000/svg" width="13" height="13" version="1.1">
    <g transform="translate(-179.25 234.89)">
        <g transform="translate(80.25 -237.25)" opacity=".5">
            <path d="m99 8.8622c0 3.5898 2.9102 6.5 6.5 6.5 3.5898 0 6.5-2.9102 6.5-6.5 0-3.5898-2.9102-6.5-6.5-6.5-3.5898 0-6.5 2.9102-6.5 6.5zm1-0.085713c0-3.0866 2.4134-5.4143 5.5-5.4143s5.5 2.4134 5.5 5.5c0 3.0866-2.4134 5.4857-5.5 5.4857s-5.5-2.4849-5.5-5.5714z" fill="#fff" opacity="1" stroke-width="0"/>
            <g transform="matrix(.93617 0 0 .93566 -96.783 -244.76)">
                <g transform="matrix(.50892 0 0 .5174 181.79 197.56)">
                    <rect x="55.818" y="130.69" width="23.088" height="22.722" rx="13.224" ry="13.246" color="#000000" fill="#fff" fill-opacity=".11765" stroke-width="0"/>
                </g>
            </g>
        </g>
    </g>
</svg>
