<svg xmlns="http://www.w3.org/2000/svg" width="5.9999" height="8.9998" version="1.1">
    <g transform="translate(-19 -51.362)">
        <g transform="matrix(0 .74646 -.8075 0 28.211 49.9)" fill="#5294e2">
            <g transform="translate(-181 -747)" fill="#5294e2">
                <path transform="matrix(0 -1.2384 1.3396 0 -216.26 790.6)" d="m31.18 298a0.80758 0.74654 0 0 0-0.58789 0.24023l-4.0371 3.7324-0.55469 0.53711 0.55469 0.53515 4.0371 3.7324a0.8208 0.75876 0 0 0 0.83984 0.1836c0.04538 0.0163 0.09279 0.0273 0.14453 0.0273 0.22368 0 0.4043-0.16627 0.4043-0.37305 0-0.0482-0.01142-0.0944-0.0293-0.13671a0.8208 0.75876 0 0 0-0.19727-0.77344l-3.457-3.1953 3.457-3.1973a0.80758 0.74654 0 0 0 0.22656-0.69922 0.80758 0.74654 0 0 0-0.02539-0.0918c0.01366-0.0376 0.02539-0.0753 0.02539-0.11718 0-0.20677-0.18062-0.375-0.4043-0.375-0.03773 0-0.07088 0.0107-0.10547 0.0195a0.80758 0.74654 0 0 0-0.29101-0.04876z" color="#000000" fill="#c7cacf" style="text-decoration-line:none;text-indent:0;text-transform:none"/>
            </g>
        </g>
    </g>
</svg>
