<svg xmlns="http://www.w3.org/2000/svg" width="5.9999" height="8.9998" version="1.1">
    <g transform="translate(-19 -62.362)">
        <g transform="matrix(0 .74646 .8075 0 15.789 60.9)" fill="#5294e2">
            <g transform="translate(-181 -747)" fill="#5294e2">
                <path transform="matrix(0 1.2384 1.3396 0 -230.99 718.78)" d="m26.82 309a0.80758 0.74654 0 0 0-0.29102 0.0488c-0.03459-9e-3 -0.06774-0.0195-0.10547-0.0195-0.22368 0-0.4043 0.16823-0.4043 0.375 0 0.0419 0.01173 0.0796 0.02539 0.11718a0.80758 0.74654 0 0 0-0.02539 0.0918 0.80758 0.74654 0 0 0 0.22656 0.69922l3.457 3.1973-3.457 3.1953a0.8208 0.75876 0 0 0-0.19727 0.77344c-0.01788 0.0423-0.0293 0.0885-0.0293 0.13671 0 0.20678 0.18062 0.37305 0.4043 0.37305 0.05174 0 0.09915-0.0111 0.14453-0.0273a0.8208 0.75876 0 0 0 0.83984-0.1836l4.0371-3.7325 0.55469-0.53515-0.55469-0.53711-4.0371-3.7324a0.80758 0.74654 0 0 0-0.58789-0.24023z" color="#000000" fill="#c7cacf" style="text-decoration-line:none;text-indent:0;text-transform:none"/>
            </g>
        </g>
    </g>
</svg>
