<svg xmlns="http://www.w3.org/2000/svg" width="9" height="6" version="1.1">
    <g transform="translate(-53 -51.362)">
        <g transform="matrix(1 0 0 -1 53 57.362)">
            <rect width="9" height="6" fill="none"/>
            <g transform="matrix(.58058 0 0 .67292 -.13764 -1.6755)" fill="#5c616c">
                <g transform="translate(-181 -747)" fill="#5c616c">
                    <path transform="matrix(1.7224 0 0 -1.4861 77.893 1201.3)" d="m64.508 298-0.41797 0.46289-2.9023 3.3652a0.58064 0.67299 0 0 0-0.14258 0.75586c-0.0043 0.023-0.02148 0.038-0.02148 0.0625-1e-6 0.1864 0.13019 0.3379 0.29102 0.3379 0.03187 0 0.0612-0.0106 0.08984-0.0215a0.58064 0.67299 0 0 0 0.07227 0.0215 0.58064 0.67299 0 0 0 0.54492-0.18946l2.4863-2.8809 2.4844 2.8809a0.59014 0.684 0 0 0 0.60352 0.16406c0.03279 0.0148 0.06804 0.0254 0.10547 0.0254 0.16082 0 0.28906-0.1515 0.28906-0.3379 0-0.0347-0.02293-0.0565-0.03125-0.0879a0.59014 0.684 0 0 0-0.13281-0.73047l-2.9023-3.3652z" color="#000000" fill="#c7cacf" style="text-decoration-line:none;text-indent:0;text-transform:none"/>
                </g>
            </g>
        </g>
    </g>
</svg>
