<svg xmlns="http://www.w3.org/2000/svg" xmlns:xlink="http://www.w3.org/1999/xlink" width="16" height="16" version="1.1">
    <defs/>
    <g transform="translate(-330 281.64)">
        <g transform="translate(294 -282)" opacity=".55">
            <g transform="translate(19)">
                <g transform="translate(0,-30)">
                    <g transform="matrix(.92952 0 0 .92914 -156.75 -212.96)">
                        <g transform="matrix(.50892 0 0 .5174 161.79 197.56)"/>
                    </g>
                    <rect x="17" y="30.362" width="16" height="16" color="#000000" fill="none"/>
                    <rect x="18" y="31.362" width="14" height="14" rx="2" ry="2" color="#000000" fill="#5294e2" opacity="1" stroke-width="0"/>
                </g>
            </g>
            <g transform="translate(36,-1036)">
                <g transform="rotate(45 7.5 1026.4)">
                    <g transform="translate(12.374 11.531)">
                        <g transform="translate(-3 -5)" fill="#3b3c3e">
                            <path transform="rotate(-45 1191.1 589.87)" d="m47.281 64.781-4.25 4.25-2.125-2.125-1.4062 1.4062 2.125 2.125 1.4062 1.4375 1.4062-1.4375 4.25-4.2188z" fill="#2b303b" opacity="1"/>
                        </g>
                        <rect transform="translate(0 1036.4)" x="5" y="-8" width="3" height="1" fill-opacity="0"/>
                    </g>
                </g>
            </g>
        </g>
    </g>
</svg>
