<svg xmlns="http://www.w3.org/2000/svg" width="21" height="24" version="1.1">
    <defs>
        <clipPath id="a">
            <rect x="70" y="-3.6378" width="21" height="26" rx="0" ry="0" fill="#ff1616" opacity=".64"/>
        </clipPath>
        <clipPath id="b">
            <rect x="70" y="-3.6378" width="21" height="26" rx="0" ry="0" fill="#ff1616" opacity=".64"/>
        </clipPath>
        <clipPath id="c">
            <rect x="70" y="-3.6378" width="21" height="26" rx="0" ry="0" fill="#ff1616" opacity=".64"/>
        </clipPath>
    </defs>
    <g transform="translate(-102 2.6378)">
        <rect transform="matrix(-1,0,0,1,193,0)" x="67" y="-1.6378" width="22" height="22" rx="1" ry="1" clip-path="url(#a)" fill="#505666"/>
        <rect transform="matrix(-1,0,0,1,193,0)" x="66.5" y="-2.1378" width="23" height="23" rx="2" ry="2" clip-path="url(#b)" fill="none" stroke="#2b2e39"/>
        <rect transform="matrix(-1,0,0,1,193,0)" x="65" y="-2.6378" width="26" height="24" clip-path="url(#c)" fill="none" opacity=".133"/>
        <rect x="122" y="-1.6378" width="1" height="22" rx="1.3878e-16" ry="1.4539e-16" fill="#2b2e39"/>
    </g>
</svg>
